<?xml version="1.0" standalone="no"?>
<!DOCTYPE svg PUBLIC "-//W3C//DTD SVG 20010904//EN"
 "http://www.w3.org/TR/2001/REC-SVG-20010904/DTD/svg10.dtd">
<svg version="1.0" xmlns="http://www.w3.org/2000/svg"
 width="460.000000pt" height="460.000000pt" viewBox="0 0 460.000000 460.000000"
 preserveAspectRatio="xMidYMid meet">
<metadata>
Created by potrace 1.11, written by Peter Selinger 2001-2013
</metadata>
<g transform="translate(0.000000,460.000000) scale(0.100000,-0.100000)"
fill="#000000" stroke="none">
<path d="M3296 4528 c12 -193 23 -541 18 -549 -14 -23 -51 -3 -129 70 -74 70
-90 81 -132 87 -26 4 -65 2 -86 -3 -34 -10 -42 -8 -63 10 -14 12 -22 27 -20
33 3 7 0 15 -7 17 -7 2 -1 2 11 0 13 -2 21 0 18 5 -3 5 6 14 21 21 37 17 16
36 -23 20 -16 -6 -46 -12 -66 -14 -36 -2 -38 -1 -38 28 0 26 -3 29 -22 22 -55
-17 -72 -17 -82 -4 -20 26 -112 79 -138 79 -27 0 -62 -32 -73 -69 -6 -21 -5
-23 14 -18 11 3 21 1 21 -4 0 -5 -9 -9 -20 -9 -11 0 -20 -4 -20 -10 0 -5 -22
-10 -49 -10 -28 0 -52 -4 -56 -9 -3 -6 -17 -6 -35 -1 -18 5 -30 5 -30 -1 0 -5
-7 -9 -15 -9 -8 0 -15 6 -15 13 0 7 -8 13 -17 13 -10 1 -27 5 -37 9 -14 6 -17
5 -12 -3 5 -8 -1 -12 -17 -12 -25 0 -57 27 -57 48 0 7 -4 12 -9 12 -6 0 -8
-10 -6 -22 4 -16 2 -19 -7 -10 -20 20 -32 13 -14 -7 10 -11 15 -25 10 -32 -4
-8 -3 -10 4 -5 7 4 12 3 12 -3 0 -5 -5 -13 -10 -16 -15 -9 -2 -25 15 -18 8 3
15 1 15 -3 0 -11 -70 -34 -107 -35 -16 0 -22 -3 -15 -6 6 -2 9 -10 5 -15 -4
-7 2 -9 18 -5 23 6 23 5 5 -8 -11 -8 -26 -15 -33 -15 -7 0 -13 -5 -13 -11 0
-5 -4 -7 -10 -4 -5 3 -10 2 -10 -4 0 -13 -26 -27 -69 -36 -26 -5 -32 -4 -26 6
6 9 2 11 -16 6 -13 -4 -28 -7 -32 -7 -5 0 -6 -13 -2 -30 5 -24 3 -30 -11 -30
-17 0 -74 -55 -74 -72 0 -4 -7 -8 -15 -8 -9 0 -18 -7 -21 -15 -4 -8 -13 -15
-21 -15 -9 0 -13 -6 -10 -13 3 -8 -12 -29 -34 -48 -22 -19 -55 -57 -74 -85
-32 -48 -64 -82 -72 -76 -1 1 -3 -1 -2 -5 2 -12 -36 -27 -81 -31 -25 -2 -49
-10 -53 -18 -5 -8 -12 -12 -16 -9 -5 2 -14 -2 -21 -10 -14 -17 -46 -20 -55 -5
-4 6 -11 7 -17 4 -6 -4 -5 -10 3 -15 9 -6 -1 -9 -28 -9 -33 0 -43 -4 -48 -20
-8 -25 -23 -26 -41 -2 -13 16 -14 16 -20 -4 -4 -14 -12 -20 -23 -17 -9 2 -27
-5 -40 -16 -18 -16 -28 -18 -42 -10 -11 5 -19 14 -19 19 0 15 -37 12 -54 -5
-16 -17 -66 -21 -66 -5 0 6 -20 10 -45 10 -25 0 -45 -4 -45 -10 0 -5 -7 -10
-15 -10 -9 0 -15 -9 -15 -25 0 -18 -4 -23 -15 -19 -8 4 -15 15 -15 26 0 14 -5
18 -17 14 -10 -2 -33 -7 -50 -11 -32 -6 -33 -6 -28 24 3 17 7 45 10 61 2 17 0
30 -5 30 -6 0 -10 -9 -10 -20 0 -17 -7 -20 -50 -20 -27 0 -50 5 -50 10 0 6 -7
10 -15 10 -8 0 -15 9 -15 20 0 11 -4 20 -10 20 -5 0 -10 -5 -10 -11 0 -7 -11
-9 -27 -6 -14 3 -39 0 -55 -5 l-29 -10 28 -24 c21 -18 25 -26 16 -35 -15 -15
-39 2 -48 32 -9 26 -20 24 -33 -6 -15 -33 -37 -32 -64 5 -12 17 -25 30 -30 30
-4 0 -8 -13 -8 -30 0 -16 -4 -30 -8 -30 -9 0 -9 35 2 70 6 22 12 25 54 23 25
0 48 -6 50 -12 2 -6 10 -11 19 -11 19 0 48 29 38 38 -4 4 -10 1 -12 -5 -11
-29 -63 -2 -63 32 0 9 -6 15 -12 12 -7 -2 -12 -11 -10 -21 4 -21 -24 -21 -45
0 -14 14 -14 16 2 28 17 12 14 36 -4 36 -11 0 -31 -46 -31 -70 0 -11 -4 -20
-10 -20 -5 0 -10 7 -10 15 0 8 -7 15 -15 15 -19 0 -19 -5 1 -40 10 -15 14 -35
11 -45 -10 -23 -24 -11 -31 28 -6 31 -8 32 -46 29 -49 -5 -53 -22 -6 -22 19 0
38 -5 42 -11 5 -8 -6 -10 -35 -7 -22 2 -41 0 -41 -4 0 -5 -4 -8 -10 -8 -5 0
-10 12 -10 26 0 14 -4 23 -10 19 -6 -3 -10 -15 -10 -26 0 -34 -17 -20 -27 24
-10 41 -11 40 -12 -35 -1 -53 3 -78 12 -81 9 -4 9 -6 0 -6 -10 -1 -12 -381
-13 -1741 l0 -1740 270 0 270 0 -12 22 c-7 13 -22 34 -34 48 -25 30 -37 60
-24 60 5 0 38 -29 73 -65 l64 -65 66 0 67 0 -56 73 c-31 39 -68 84 -82 98 -51
51 -103 114 -102 123 1 5 -4 13 -12 17 -10 7 -10 9 2 9 8 0 50 -23 92 -50 77
-50 138 -114 208 -218 l35 -51 57 -1 58 0 -18 29 c-9 16 -51 83 -93 148 -42
65 -84 135 -93 155 -32 66 -127 169 -193 207 -34 20 -62 40 -63 45 0 14 89 -4
125 -25 31 -18 86 -19 84 0 0 3 -28 20 -62 36 -53 26 -62 34 -62 58 -1 27 9
35 20 17 4 -6 59 -37 123 -69 117 -59 174 -103 227 -174 22 -29 32 -60 45
-140 16 -95 69 -238 88 -236 22 4 31 -3 26 -19 -5 -16 -5 -16 6 1 6 9 15 15
19 12 12 -7 22 37 11 50 -12 14 -10 75 3 75 5 0 6 7 3 16 -6 15 -4 15 11 3 10
-8 21 -18 25 -24 4 -5 8 -6 8 -1 0 5 -12 24 -26 43 -21 28 -24 41 -19 71 3 20
8 67 10 103 3 37 9 78 14 92 6 14 8 56 5 94 -17 248 -17 246 -3 241 8 -3 20
-15 26 -29 8 -14 13 -18 13 -9 0 9 -9 34 -20 55 -22 42 -20 85 4 85 19 0 24
-18 32 -98 7 -76 25 -112 55 -112 15 0 20 -5 17 -22 -4 -29 -25 -34 -33 -8
-10 30 -55 77 -55 57 0 -21 21 -67 30 -67 14 0 38 -65 33 -90 -3 -19 5 -37 31
-70 42 -53 47 -79 14 -73 -13 2 -40 -5 -60 -15 l-38 -20 30 -6 c26 -5 29 -9
25 -33 -11 -69 -16 -116 -21 -231 l-5 -122 80 0 c47 0 81 4 81 10 0 6 -4 10
-10 10 -5 0 -10 11 -10 24 0 13 -6 27 -12 29 -8 3 -5 6 5 6 10 1 15 5 12 11
-8 13 -15 45 -22 100 -3 25 -9 50 -13 55 -3 6 -13 37 -20 70 -7 33 -17 65 -22
71 -10 13 32 28 44 16 12 -12 65 -224 79 -314 l13 -88 57 0 c64 0 71 8 58 70
-4 19 -10 63 -13 97 -3 33 -10 73 -16 87 -5 14 -8 26 -6 26 2 0 -1 21 -8 48
-15 57 -11 72 19 72 16 0 30 -11 44 -35 13 -23 28 -35 42 -35 39 0 100 -23
110 -42 12 -23 61 -25 52 -2 -5 13 -8 13 -15 2 -7 -9 -8 -8 -4 5 3 10 6 24 6
30 0 7 4 6 10 -3 8 -13 10 -13 10 2 0 10 -16 26 -39 37 -46 24 -159 143 -186
197 -11 22 -28 51 -38 66 -9 15 -24 44 -31 65 -7 21 -32 67 -55 102 -22 35
-41 68 -41 73 0 18 25 1 38 -25 7 -15 18 -27 23 -27 14 0 39 -26 39 -40 0 -6
4 -9 9 -5 5 3 13 -5 17 -17 10 -32 37 -67 52 -68 6 0 20 -18 29 -40 10 -22 25
-40 33 -40 20 0 80 -49 80 -65 0 -19 45 -36 59 -22 8 8 16 5 29 -13 28 -41 42
-72 36 -81 -3 -5 0 -9 5 -9 6 0 11 -7 11 -15 0 -8 1 -15 3 -15 15 0 115 35
126 44 8 6 17 11 20 11 3 -1 11 9 18 21 12 23 13 145 2 138 -9 -5 -19 22 -19
54 0 22 -2 24 -10 12 -8 -11 -9 -7 -4 14 6 26 5 29 -15 23 -11 -3 -19 -1 -16
3 3 5 -3 13 -12 19 -10 6 -15 11 -11 11 12 0 -25 40 -37 40 -5 0 -3 -5 5 -10
10 -6 11 -10 3 -10 -7 0 -22 20 -33 45 -11 25 -33 59 -48 77 -72 86 -94 120
-85 129 7 7 31 -12 69 -52 133 -142 226 -233 221 -217 -4 12 -2 15 9 11 9 -3
13 -12 9 -22 -5 -12 -3 -13 5 -5 12 12 -2 50 -25 67 -7 4 -6 10 2 15 12 8 14
25 13 117 -1 65 -4 91 -14 146 -6 27 -3 44 15 74 13 21 25 33 27 27 2 -6 10
-8 18 -5 8 3 14 -1 14 -9 0 -8 11 -20 25 -26 32 -15 75 -16 75 -2 0 6 7 10 16
10 11 0 14 5 10 16 -5 12 0 15 22 12 21 -2 27 -9 28 -28 1 -14 2 -29 4 -35 1
-5 2 -14 1 -18 -2 -15 50 19 62 40 7 11 20 32 30 45 10 14 20 49 24 77 l6 51
48 0 c59 0 79 7 72 26 -6 17 18 104 29 104 4 0 5 6 2 14 -3 8 -1 17 5 20 6 4
8 13 5 20 -3 8 0 17 6 21 9 6 9 10 -1 16 -11 7 -10 11 6 23 16 13 17 15 4 16
-9 0 -21 -10 -27 -23 -10 -22 -11 -22 -11 6 -1 18 4 27 14 27 8 0 15 5 15 10
0 12 -22 53 -33 61 -4 3 4 16 18 29 26 24 33 54 15 65 -11 7 30 45 48 45 5 0
13 7 16 16 4 11 13 14 30 10 16 -4 29 1 41 14 25 27 29 26 51 -20 10 -22 21
-40 24 -40 16 1 39 33 68 93 27 56 36 67 51 62 16 -5 20 1 26 35 7 44 -2 117
-16 126 -5 3 -9 15 -9 27 0 12 -7 35 -15 51 -8 15 -15 37 -15 48 0 10 -8 33
-17 51 -9 18 -16 35 -15 38 1 4 -8 5 -18 2 -11 -3 -20 0 -20 6 0 6 -13 11 -30
11 -45 0 -64 -36 -62 -118 1 -42 7 -71 17 -82 8 -9 15 -21 15 -26 0 -6 11 -34
25 -63 16 -32 23 -61 20 -72 -8 -24 -43 -39 -91 -39 -27 0 -34 -4 -34 -20 0
-48 -43 -90 -92 -90 -10 0 -18 -5 -18 -11 0 -7 -13 -9 -37 -5 -21 3 -46 6 -55
7 -10 0 -18 4 -18 10 0 5 -9 9 -20 9 -26 0 -26 27 1 35 13 4 27 0 40 -11 18
-16 19 -16 19 3 0 20 6 24 93 55 46 16 56 28 23 28 -22 0 -27 4 -22 16 9 24
-5 96 -18 91 -6 -2 -20 -1 -31 3 -16 6 -12 9 20 14 54 9 91 38 80 62 -4 11 -9
32 -10 48 -2 15 -7 38 -13 50 -24 52 -32 78 -27 86 3 5 -1 22 -8 37 -22 42
-22 194 -1 238 18 38 30 42 59 21 17 -12 17 -17 5 -45 -12 -30 -11 -34 17 -69
16 -21 56 -51 91 -68 35 -17 72 -40 82 -49 11 -10 20 -14 20 -10 0 5 7 0 15
-11 12 -16 14 -17 15 -2 0 9 8 19 18 22 9 4 28 15 42 25 l24 19 -34 31 c-22
19 -31 33 -25 39 14 13 74 32 101 32 14 0 24 6 24 13 0 15 -31 47 -46 47 -13
1 -64 47 -64 58 0 14 64 42 94 42 27 0 36 23 14 36 -7 4 -64 9 -127 10 -151 4
-267 15 -249 25 9 5 13 25 12 58 -1 45 2 51 20 52 20 0 20 1 -1 9 -23 9 -32
30 -13 30 6 0 10 -4 10 -10 0 -5 5 -10 11 -10 6 0 9 6 6 14 -3 8 1 20 8 26 8
7 12 16 9 21 -3 5 0 9 5 9 6 0 11 -4 11 -10 0 -5 5 -10 11 -10 6 0 9 7 5 15
-3 10 1 15 14 15 10 0 26 7 34 16 12 11 16 12 16 2 0 -10 19 -13 74 -13 41 0
69 3 63 7 -9 5 -9 10 1 20 15 15 16 38 1 38 -6 0 -17 -7 -25 -15 -17 -17 -94
-21 -94 -5 0 9 8 12 55 14 16 1 20 8 20 36 1 68 16 122 32 116 8 -3 19 -6 24
-6 5 0 9 -10 9 -22 1 -20 2 -19 14 7 12 28 13 29 24 10 11 -19 11 -19 12 3 0
13 6 22 15 22 8 0 15 4 15 8 0 5 10 8 23 7 14 -1 23 -9 25 -23 2 -12 7 -22 12
-22 11 0 19 -49 9 -52 -5 -2 -11 -20 -13 -40 -3 -20 -11 -46 -18 -57 -16 -27
-7 -34 26 -18 18 8 25 18 22 29 -2 10 0 21 5 24 5 3 9 -4 9 -16 0 -12 4 -19 9
-16 5 3 6 -15 3 -39 -4 -36 -2 -45 11 -45 12 0 13 -6 7 -27 -15 -48 -42 -195
-50 -273 -5 -41 -11 -106 -15 -145 -6 -58 -5 -68 6 -58 7 7 21 13 31 13 10 0
18 4 18 8 0 5 14 7 30 4 17 -2 30 0 30 6 0 5 7 9 16 8 9 0 21 8 28 19 21 37
77 100 89 100 17 0 25 41 26 132 1 52 -3 84 -11 89 -8 5 -7 10 4 18 13 10 48
95 50 123 1 7 8 15 15 17 8 3 21 23 30 43 17 40 19 46 21 103 1 23 5 31 12 24
7 -7 7 -21 -1 -43 -6 -17 -8 -35 -4 -39 4 -4 10 -1 12 6 3 7 11 19 19 27 26
25 20 114 -11 161 -23 35 -19 56 17 87 l33 29 -33 -22 -34 -23 4 71 c2 39 0
69 -3 66 -20 -12 -34 84 -20 136 4 15 30 -49 31 -75 0 -16 5 -37 10 -45 18
-27 11 51 -10 110 -20 60 -18 75 10 60 23 -13 30 -13 30 0 0 5 -11 12 -25 16
-15 4 -25 13 -25 24 0 9 -9 29 -21 44 -11 14 -17 26 -12 26 14 0 63 -61 63
-78 0 -11 3 -13 10 -6 8 8 7 20 -2 40 -16 37 -24 45 -73 76 -22 14 -51 37 -65
51 -14 15 -31 27 -37 27 -16 0 -17 12 -1 28 9 9 8 12 -6 12 -11 0 -16 5 -13
14 3 7 1 18 -5 24 -9 9 -17 140 -32 527 -3 77 -6 146 -6 153 0 6 -4 12 -9 12
-5 0 -8 -32 -5 -72z m-310 -417 c-3 -5 -17 -8 -31 -8 -13 0 -22 3 -19 8 3 5
16 9 30 9 14 0 23 -4 20 -9z m83 -65 c10 -12 8 -13 -8 -9 -12 3 -21 9 -21 14
0 14 16 11 29 -5z m226 -96 c3 -5 1 -10 -4 -10 -6 0 -11 5 -11 10 0 6 2 10 4
10 3 0 8 -4 11 -10z m175 -350 c0 -5 -2 -10 -4 -10 -3 0 -8 5 -11 10 -3 6 -1
10 4 10 6 0 11 -4 11 -10z m-3387 -74 c-2 -3 -3 -15 -3 -26 0 -12 -7 -20 -17
-20 -13 0 -14 3 -5 12 17 17 15 28 -6 28 -26 0 -34 11 -20 27 9 11 14 11 32 0
12 -8 20 -17 19 -21z m417 24 c0 -5 -4 -10 -10 -10 -5 0 -10 -9 -10 -20 0 -21
-15 -27 -25 -9 -4 6 1 19 11 29 21 21 34 25 34 10z m-292 -38 c2 -7 -3 -12
-12 -12 -9 0 -16 7 -16 16 0 17 22 14 28 -4z m432 -7 c0 -11 -11 -15 -40 -15
-29 0 -40 4 -40 15 0 11 11 15 40 15 29 0 40 -4 40 -15z m-482 -40 c4 -16 2
-16 -22 1 -14 11 -26 25 -26 33 0 20 44 -11 48 -34z m382 25 c0 -5 -5 -10 -11
-10 -7 0 -9 -11 -6 -30 4 -16 2 -32 -4 -36 -8 -4 -7 -9 2 -15 17 -10 4 -23
-16 -15 -11 4 -14 13 -9 31 4 15 2 25 -5 25 -6 0 -11 5 -11 10 0 6 7 10 16 10
11 0 14 6 9 20 -5 16 -2 20 14 20 12 0 21 -4 21 -10z m610 0 c0 -5 -5 -10 -11
-10 -5 0 -7 5 -4 10 3 6 8 10 11 10 2 0 4 -4 4 -10z m-847 -17 c-18 -7 -16
-33 2 -33 8 0 15 -4 15 -10 0 -13 -1 -13 -39 6 -30 15 -31 17 -14 30 10 7 25
13 33 13 10 0 11 -2 3 -6z m80 -14 c3 -12 10 -18 15 -15 9 5 22 -15 22 -34 0
-5 -12 -7 -27 -5 -25 2 -28 7 -26 35 1 29 -1 32 -23 27 -13 -2 -24 0 -24 4 0
5 13 9 29 9 21 0 30 -6 34 -21z m225 -19 c1 -22 -2 -40 -8 -40 -5 0 -10 18
-10 40 0 52 14 52 18 0z m365 33 c-19 -7 -16 -23 5 -23 14 0 15 -2 2 -10 -10
-6 -16 -6 -18 0 -2 6 -21 10 -43 10 -53 0 -50 18 4 23 23 2 47 4 52 4 6 1 4
-1 -2 -4z m-417 -30 c-10 -10 -19 5 -10 18 6 11 8 11 12 0 2 -7 1 -15 -2 -18z
m484 17 c0 -5 -7 -10 -16 -10 -8 0 -12 5 -9 10 3 6 10 10 16 10 5 0 9 -4 9
-10z m-375 -20 c-3 -5 -10 -10 -16 -10 -5 0 -9 5 -9 10 0 6 7 10 16 10 8 0 12
-4 9 -10z m135 -36 c0 -14 -5 -24 -11 -22 -6 2 -10 7 -10 11 1 4 1 14 1 22 0
8 5 15 10 15 6 0 10 -12 10 -26z m-112 -1 c-10 -2 -26 -2 -35 0 -10 3 -2 5 17
5 19 0 27 -2 18 -5z m2761 -10 c34 -33 52 -83 31 -83 -6 0 -17 18 -26 40 -11
27 -22 40 -35 40 -10 0 -19 5 -19 10 0 16 29 12 49 -7z m-2699 2 c0 -2 -9 -9
-20 -15 -16 -9 -18 -8 -14 5 5 13 34 22 34 10z m-110 -21 c0 -11 -5 -14 -16
-10 -9 3 -21 6 -27 6 -16 0 14 20 31 20 6 0 12 -7 12 -16z m-140 -24 c0 -5 -4
-10 -10 -10 -5 0 -10 5 -10 10 0 6 5 10 10 10 6 0 10 -4 10 -10z m167 -6 c-3
-3 -12 -4 -19 -1 -8 3 -5 6 6 6 11 1 17 -2 13 -5z m50 -20 c-3 -3 -12 -4 -19
-1 -8 3 -5 6 6 6 11 1 17 -2 13 -5z m-257 -14 c0 -5 -2 -10 -4 -10 -3 0 -8 5
-11 10 -3 6 -1 10 4 10 6 0 11 -4 11 -10z m2950 -21 c0 -6 -4 -7 -10 -4 -5 3
-10 11 -10 16 0 6 5 7 10 4 6 -3 10 -11 10 -16z m25 1 c3 -5 1 -10 -4 -10 -6
0 -11 5 -11 10 0 6 2 10 4 10 3 0 8 -4 11 -10z m-3015 -24 c0 -3 -4 -8 -10
-11 -5 -3 -10 -1 -10 4 0 6 5 11 10 11 6 0 10 -2 10 -4z m2540 -736 c18 -12 2
-12 -25 0 -13 6 -15 9 -5 9 8 0 22 -4 30 -9z m-1462 -776 c14 -4 21 -12 18
-20 -4 -9 2 -14 17 -14 21 -1 22 -1 3 -15 -19 -14 -19 -15 -1 -15 10 0 26 -7
36 -16 15 -14 21 -12 65 15 26 17 45 31 40 31 -4 0 -4 5 0 11 9 15 24 -9 24
-41 0 -20 2 -22 10 -10 8 12 10 8 11 -15 2 -71 -4 -112 -23 -147 -19 -34 -25
-37 -82 -43 -33 -4 -71 -13 -83 -21 -12 -8 -38 -13 -57 -12 -32 3 -34 5 -29
27 l6 24 -21 -21 c-25 -25 -114 -72 -137 -72 -8 0 -15 6 -15 14 0 9 -12 16
-27 18 -28 3 -28 4 -26 68 2 63 2 65 27 63 21 -1 26 3 26 23 0 24 18 32 36 14
13 -13 36 4 28 23 -3 9 -13 18 -22 20 -12 3 -11 5 5 6 12 0 26 -6 31 -15 6
-11 11 -13 16 -5 4 6 2 11 -3 11 -20 0 -11 17 14 28 15 7 25 20 25 32 0 15 7
20 28 21 23 2 24 2 5 6 -27 5 -30 20 -5 26 26 7 35 7 60 1z m-378 -184 c0 -5
-7 -10 -16 -10 -8 0 -12 5 -9 10 3 6 10 10 16 10 5 0 9 -4 9 -10z m57 -6 c-3
-3 -12 -4 -19 -1 -8 3 -5 6 6 6 11 1 17 -2 13 -5z m-26 -34 c16 0 29 5 29 10
0 6 5 10 10 10 6 0 10 -11 10 -24 0 -23 -3 -24 -42 -19 -49 6 -64 16 -52 34 6
10 9 10 12 1 2 -7 17 -12 33 -12z m-96 -20 c3 -5 1 -10 -4 -10 -6 0 -11 5 -11
10 0 6 2 10 4 10 3 0 8 -4 11 -10z m65 -37 c0 -10 -4 -14 -8 -8 -4 6 -11 13
-16 18 -5 4 -2 7 7 7 10 0 17 -8 17 -17z m394 -894 c51 -137 51 -167 0 -148
-24 8 -39 78 -20 92 8 5 7 10 -3 16 -17 11 -28 111 -13 111 5 0 22 -32 36 -71z
m-665 -6 c40 -29 101 -93 101 -106 0 -5 -6 -2 -13 5 -30 29 -121 104 -141 115
-19 11 -20 12 -2 13 11 0 35 -12 55 -27z m-345 -212 c13 -5 16 -10 8 -15 -11
-6 -52 9 -52 19 0 7 22 5 44 -4z m66 -26 c0 -8 11 -17 25 -21 14 -3 25 -10 25
-15 0 -13 -12 -11 -59 12 -40 19 -42 21 -25 34 21 15 34 11 34 -10z"/>
<path d="M1442 1690 c0 -14 2 -19 5 -12 2 6 2 18 0 25 -3 6 -5 1 -5 -13z"/>
<path d="M545 340 c-3 -5 -1 -10 4 -10 6 0 11 5 11 10 0 6 -2 10 -4 10 -3 0
-8 -4 -11 -10z"/>
<path d="M3380 3921 c0 -5 7 -12 16 -15 14 -5 15 -4 4 9 -14 17 -20 19 -20 6z"/>
<path d="M115 3760 c-3 -5 -1 -10 4 -10 6 0 11 5 11 10 0 6 -2 10 -4 10 -3 0
-8 -4 -11 -10z"/>
<path d="M640 3752 c0 -10 22 -32 32 -32 15 0 8 15 -12 28 -11 7 -20 9 -20 4z"/>
<path d="M328 3743 c7 -3 16 -2 19 1 4 3 -2 6 -13 5 -11 0 -14 -3 -6 -6z"/>
<path d="M7 3722 c7 -4 11 -21 10 -36 -3 -42 20 -44 25 -2 4 35 -5 46 -35 46
-9 0 -9 -2 0 -8z"/>
<path d="M180 3705 c0 -8 2 -15 4 -15 2 0 6 7 10 15 3 8 1 15 -4 15 -6 0 -10
-7 -10 -15z"/>
<path d="M295 3710 c3 -5 10 -10 16 -10 5 0 9 5 9 10 0 6 -7 10 -16 10 -8 0
-12 -4 -9 -10z"/>
<path d="M80 3690 c0 -5 5 -10 10 -10 6 0 10 5 10 10 0 6 -4 10 -10 10 -5 0
-10 -4 -10 -10z"/>
<path d="M408 3693 c6 -2 18 -2 25 0 6 3 1 5 -13 5 -14 0 -19 -2 -12 -5z"/>
<path d="M132 3668 c6 -18 28 -21 28 -4 0 9 -7 16 -16 16 -9 0 -14 -5 -12 -12z"/>
<path d="M61 3657 c-11 -15 -11 -17 2 -17 8 0 17 -3 19 -7 2 -5 21 -5 43 -2
l40 6 -42 2 c-30 1 -42 6 -45 18 -3 15 -4 15 -17 0z"/>
<path d="M347 3651 c-4 -16 2 -18 49 -17 46 1 50 2 31 13 -12 6 -25 9 -29 7
-4 -3 -16 0 -27 5 -15 8 -20 7 -24 -8z"/>
<path d="M462 3658 c3 -7 13 -15 23 -17 17 -3 17 -2 3 13 -20 19 -31 21 -26 4z"/>
<path d="M655 3620 c-19 -8 -19 -9 2 -9 12 -1 25 4 28 9 7 12 -2 12 -30 0z"/>
<path d="M551 3574 c0 -11 3 -14 6 -6 3 7 2 16 -1 19 -3 4 -6 -2 -5 -13z"/>
<path d="M690 3580 c0 -5 7 -10 15 -10 8 0 15 5 15 10 0 6 -7 10 -15 10 -8 0
-15 -4 -15 -10z"/>
<path d="M308 3563 c6 -2 18 -2 25 0 6 3 1 5 -13 5 -14 0 -19 -2 -12 -5z"/>
<path d="M670 3520 c0 -22 5 -40 10 -40 6 0 10 18 10 40 0 22 -4 40 -10 40 -5
0 -10 -18 -10 -40z"/>
<path d="M720 3545 c0 -8 5 -15 10 -15 6 0 10 7 10 15 0 8 -4 15 -10 15 -5 0
-10 -7 -10 -15z"/>
<path d="M1165 3550 c4 -6 11 -8 16 -5 14 9 11 15 -7 15 -8 0 -12 -5 -9 -10z"/>
<path d="M818 3533 c12 -2 32 -2 45 0 12 2 2 4 -23 4 -25 0 -35 -2 -22 -4z"/>
<path d="M3374 2415 c0 -60 1 -84 3 -52 2 32 2 81 0 110 -2 29 -3 3 -3 -58z"/>
<path d="M3383 2080 c0 -25 2 -35 4 -22 2 12 2 32 0 45 -2 12 -4 2 -4 -23z"/>
<path d="M2764 1135 l1 -120 -45 -77 c-87 -150 -196 -258 -220 -219 -6 11 -56
41 -67 41 -3 0 -2 -11 1 -24 6 -26 -1 -56 -14 -56 -5 0 -33 -24 -63 -52 -30
-29 -67 -64 -83 -78 l-28 -25 35 -8 c60 -15 79 -26 79 -45 0 -10 6 -24 12 -30
10 -10 10 -15 -2 -22 -23 -15 -40 -12 -40 8 0 21 -18 42 -36 42 -22 0 -24 -30
-4 -50 20 -20 20 -20 -5 -20 -29 0 -49 31 -42 66 5 29 -3 30 -32 5 -13 -11
-27 -21 -31 -23 -20 -7 -21 -54 -1 -74 11 -12 16 -25 11 -30 -4 -5 -10 -18
-13 -29 -4 -18 -5 -18 -6 2 0 12 -6 25 -11 28 -7 4 -9 -2 -4 -19 4 -16 1 -33
-7 -43 -12 -15 -12 -16 3 -10 12 4 19 0 23 -16 12 -41 30 -77 38 -77 5 0 6 10
2 23 -5 20 -4 20 8 -3 8 -14 20 -49 27 -79 12 -50 11 -55 -6 -65 -11 -5 -34
-11 -51 -12 -26 -2 -33 2 -33 16 0 10 -10 27 -22 37 -13 10 -29 31 -37 46 -8
15 -30 45 -48 67 -18 21 -33 43 -33 48 0 6 -6 17 -12 24 -7 7 -22 30 -32 51
-21 40 -29 43 -87 26 l-38 -12 23 -36 c19 -31 34 -62 38 -81 1 -3 12 -13 24
-22 12 -10 25 -29 28 -43 4 -14 11 -25 16 -25 5 0 32 -22 60 -50 29 -27 57
-51 64 -54 6 -2 -1 -5 -16 -5 -33 -1 -38 -21 -5 -22 12 0 33 -2 46 -5 13 -2
41 1 63 7 29 7 44 7 51 0 6 -6 44 -11 84 -11 70 0 73 1 73 24 0 44 21 81 63
110 23 17 49 38 57 48 27 34 88 93 115 111 40 28 86 107 74 128 -5 10 -9 32
-9 49 0 25 3 31 16 26 9 -3 26 4 41 19 15 13 30 22 35 19 4 -3 9 1 9 8 2 24
-3 43 -14 50 -9 6 -8 8 1 8 9 0 11 7 7 20 -4 12 0 31 8 44 10 14 12 28 6 38
-8 14 -23 214 -20 263 5 82 -1 198 -13 240 -14 50 -14 49 -12 -70z m-454 -695
c0 -5 -2 -10 -4 -10 -3 0 -8 5 -11 10 -3 6 -1 10 4 10 6 0 11 -4 11 -10z"/>
<path d="M3174 931 c3 -30 10 -59 15 -64 13 -13 3 82 -11 103 -6 10 -8 -3 -4
-39z"/>
<path d="M2456 832 c-3 -5 1 -9 9 -9 8 0 15 4 15 9 0 4 -4 8 -9 8 -6 0 -12 -4
-15 -8z"/>
<path d="M3245 703 c-3 -21 -10 -46 -15 -55 -7 -12 -5 -22 5 -31 12 -13 11
-16 -8 -22 -19 -6 -16 -8 18 -14 22 -4 55 -18 73 -31 l33 -24 -82 -22 c-44
-13 -84 -25 -87 -29 -3 -3 35 -4 85 -3 50 2 89 6 87 9 -2 4 6 9 19 13 12 3 24
1 25 -4 2 -6 10 -10 19 -10 8 0 30 -12 49 -26 19 -15 34 -24 34 -21 0 9 -122
102 -160 123 -19 10 -47 29 -61 42 -24 22 -26 28 -22 83 6 65 -3 80 -12 22z"/>
<path d="M3675 700 c13 -84 9 -390 -5 -390 -5 0 -28 18 -49 39 -21 21 -50 42
-63 46 -18 6 -15 0 15 -26 21 -19 65 -58 98 -86 67 -60 79 -66 48 -23 -21 28
-22 35 -15 164 6 132 -5 262 -25 296 -6 10 -8 4 -4 -20z"/>
<path d="M3798 603 c7 -3 16 -2 19 1 4 3 -2 6 -13 5 -11 0 -14 -3 -6 -6z"/>
<path d="M3787 583 c-4 -3 -7 -22 -7 -42 0 -20 -4 -52 -10 -71 -7 -24 -6 -36
1 -41 7 -4 9 -11 6 -16 -4 -6 0 -19 8 -29 13 -17 14 -15 15 26 0 25 4 51 9 58
4 7 5 31 1 53 -4 21 -3 39 1 39 5 0 9 7 9 15 0 15 -21 21 -33 8z"/>
<path d="M3592 560 c0 -14 2 -19 5 -12 2 6 2 18 0 25 -3 6 -5 1 -5 -13z"/>
<path d="M2792 520 c-13 -11 -22 -25 -19 -32 5 -16 -31 -117 -49 -139 -30 -34
-65 -204 -41 -196 7 2 13 9 13 15 1 7 2 17 3 22 0 6 9 10 19 10 15 0 15 2 2
10 -13 9 -13 12 4 25 10 7 15 18 11 24 -3 6 0 11 8 11 8 0 29 26 48 58 27 44
40 58 62 60 20 3 27 -1 28 -15 0 -10 3 -13 6 -5 2 6 9 10 14 6 11 -6 39 19 39
35 0 26 -43 99 -63 109 -43 21 -62 21 -85 2z"/>
<path d="M3070 491 c0 -17 3 -18 35 -8 38 11 30 27 -12 27 -16 0 -23 -6 -23
-19z"/>
<path d="M3586 501 c-4 -7 -5 -15 -2 -18 9 -9 19 4 14 18 -4 11 -6 11 -12 0z"/>
<path d="M2075 434 c-33 -13 -64 -29 -69 -34 -5 -5 7 -35 33 -75 22 -36 41
-70 41 -76 0 -5 9 -9 20 -9 24 0 25 8 4 38 -15 22 -13 26 19 23 24 -3 22 2
-20 45 -23 22 -33 39 -26 41 7 2 10 10 7 18 -5 12 30 32 49 27 4 -1 7 5 7 13
0 8 -1 15 -2 15 -2 -1 -30 -12 -63 -26z"/>
<path d="M3462 395 c-11 -13 -10 -21 5 -47 27 -48 52 -70 71 -64 13 5 12 3 -2
-9 -19 -15 -19 -15 3 -39 12 -13 23 -38 24 -58 1 -20 7 -42 13 -49 17 -21 23
-68 10 -78 -6 -5 -47 -14 -91 -20 -44 -6 -93 -15 -110 -21 -31 -10 -3 -9 148
7 38 3 63 1 70 -6 6 -6 41 -11 78 -11 54 0 68 3 75 18 4 9 7 20 6 23 -1 4 14
15 33 25 19 10 35 22 35 26 0 5 -21 8 -47 8 -27 0 -43 4 -38 8 12 8 13 37 2
48 -4 4 -7 16 -7 26 0 10 -5 18 -12 18 -6 0 -33 24 -60 54 -39 43 -53 53 -71
48 -19 -5 -20 -3 -9 10 10 13 8 18 -13 32 -14 9 -29 15 -33 13 -4 -2 -20 2
-37 9 -16 7 -24 13 -17 14 6 0 12 7 12 15 0 19 -21 19 -38 0z m173 -115 c3 -6
-4 -10 -17 -10 -18 0 -20 2 -8 10 19 12 18 12 25 0z"/>
<path d="M3971 361 c-10 -10 -22 -33 -26 -50 -4 -17 -11 -29 -16 -26 -5 4 -14
-7 -21 -22 -7 -15 -17 -31 -22 -35 -5 -3 -12 -15 -14 -25 -9 -32 -14 -203 -6
-203 11 0 33 34 34 52 0 9 11 34 25 54 14 20 32 61 40 90 22 78 46 157 52 172
7 19 -25 14 -46 -7z"/>
<path d="M1752 251 c-12 -7 -12 -12 0 -30 17 -28 42 -23 42 9 0 26 -20 36 -42
21z"/>
<path d="M2216 145 c4 -8 8 -15 10 -15 2 0 4 7 4 15 0 8 -4 15 -10 15 -5 0 -7
-7 -4 -15z"/>
<path d="M2676 124 c-17 -12 -17 -14 -4 -14 9 0 20 5 23 11 11 17 2 18 -19 3z"/>
<path d="M3390 121 c-8 -6 -17 -8 -21 -5 -4 2 -10 0 -14 -6 -9 -15 36 -12 65
5 22 13 23 14 5 14 -11 1 -27 -3 -35 -8z"/>
<path d="M2635 49 c-10 -14 -1 -21 19 -13 9 3 13 10 10 15 -7 12 -21 11 -29
-2z"/>
<path d="M4106 24 c-18 -26 -18 -26 5 -22 16 2 25 11 27 26 4 29 -8 28 -32 -4z"/>
<path d="M2430 9 c0 -5 5 -7 10 -4 6 3 10 8 10 11 0 2 -4 4 -10 4 -5 0 -10 -5
-10 -11z"/>
</g>
</svg>
